<svg width="330" height="185" viewBox="0 0 330 185" fill="none" xmlns="http://www.w3.org/2000/svg">
<rect width="330" height="185" fill="white"/>
<g clip-path="url(#clip0)">
<path d="M221.574 122.1H79.1641V122.603H221.574V122.1Z" fill="#3F3D56"/>
<path d="M234.155 33H71V111.955H234.155V33Z" fill="#3F3D56"/>
<path opacity="0.1" d="M234.155 39.0735V36.9044H229.138V33H226.957V36.9044H78.198V33H76.0168V36.9044H71V39.0735H76.0168V105.882H71V108.051H76.0168V111.955H78.198V108.051H226.957V111.955H229.138V108.051H234.155V105.882H229.138V39.0735H234.155ZM226.957 105.882H78.198V39.0735H226.957L226.957 105.882Z" fill="black"/>
<path d="M168.839 43.4116H143.113V67.7466H168.839V43.4116Z" fill="#D0CDE1"/>
<path d="M165.916 46.3188H146.037V61.4359H165.916V46.3188Z" fill="#3D5AFF"/>
<path d="M157.381 48.8032H150.412V55.7335H157.381V48.8032Z" fill="#F2F2F2"/>
<path d="M153.08 50.5361V58.9515H161.542V50.5361H153.08ZM161.175 58.5865H153.447V50.9012H161.175V58.5865Z" fill="#3F3D56"/>
<path d="M156.83 62.9363H146.018V63.5022H156.83V62.9363Z" fill="#F2F2F2"/>
<path d="M155.976 45.9583C156.605 45.9583 157.114 45.4516 157.114 44.8264C157.114 44.2013 156.605 43.6946 155.976 43.6946C155.347 43.6946 154.838 44.2013 154.838 44.8264C154.838 45.4516 155.347 45.9583 155.976 45.9583Z" fill="#3F3D56"/>
<path d="M178.542 78.51H152.816V102.845H178.542V78.51Z" fill="#D0CDE1"/>
<path d="M175.619 81.4172H155.74V96.5342H175.619V81.4172Z" fill="#3D5AFF"/>
<path d="M166.533 98.3176H155.721V98.8836H166.533V98.3176Z" fill="#F2F2F2"/>
<path d="M166.533 100.015H155.721V100.581H166.533V100.015Z" fill="#F2F2F2"/>
<path d="M159.276 91.2435C160.534 91.2435 161.553 90.23 161.553 88.9798C161.553 87.7296 160.534 86.7161 159.276 86.7161C158.019 86.7161 157 87.7296 157 88.9798C157 90.23 158.019 91.2435 159.276 91.2435Z" fill="#3F3D56"/>
<path d="M165.679 91.2435C166.936 91.2435 167.955 90.23 167.955 88.9798C167.955 87.7296 166.936 86.7161 165.679 86.7161C164.422 86.7161 163.402 87.7296 163.402 88.9798C163.402 90.23 164.422 91.2435 165.679 91.2435Z" fill="#F2F2F2"/>
<path d="M172.081 91.2435C173.338 91.2435 174.357 90.23 174.357 88.9798C174.357 87.7296 173.338 86.7161 172.081 86.7161C170.824 86.7161 169.805 87.7296 169.805 88.9798C169.805 90.23 170.824 91.2435 172.081 91.2435Z" fill="#FF6584"/>
<path d="M165.679 81.0569C166.308 81.0569 166.817 80.5502 166.817 79.9251C166.817 79.3 166.308 78.7932 165.679 78.7932C165.051 78.7932 164.541 79.3 164.541 79.9251C164.541 80.5502 165.051 81.0569 165.679 81.0569Z" fill="#3F3D56"/>
<path d="M139.171 70.9065H113.445V95.2415H139.171V70.9065Z" fill="#D0CDE1"/>
<path d="M136.248 73.8137H116.369V88.9307H136.248V73.8137Z" fill="#3D5AFF"/>
<path d="M124.984 87.9386C127.65 87.9386 129.811 85.7898 129.811 83.1391C129.811 80.4884 127.65 78.3396 124.984 78.3396C122.319 78.3396 120.158 80.4884 120.158 83.1391C120.158 85.7898 122.319 87.9386 124.984 87.9386Z" fill="#F2F2F2"/>
<path d="M126.406 86.841C125.21 86.841 124.04 86.4881 123.045 85.8269C122.05 85.1657 121.274 84.2259 120.816 83.1263C120.358 82.0268 120.238 80.8169 120.472 79.6496C120.705 78.4824 121.282 77.4102 122.128 76.5686C122.974 75.7271 124.052 75.154 125.226 74.9218C126.4 74.6896 127.616 74.8088 128.722 75.2642C129.828 75.7196 130.773 76.4909 131.438 77.4805C132.103 78.47 132.458 79.6334 132.458 80.8236C132.456 82.4189 131.818 83.9484 130.683 85.0765C129.549 86.2046 128.011 86.8392 126.406 86.841V86.841ZM126.406 75.025C125.253 75.025 124.126 75.3651 123.167 76.0022C122.208 76.6394 121.461 77.545 121.019 78.6045C120.578 79.6641 120.463 80.83 120.688 81.9548C120.913 83.0797 121.468 84.1129 122.283 84.9238C123.099 85.7348 124.138 86.287 125.269 86.5108C126.4 86.7345 127.572 86.6197 128.638 86.1808C129.703 85.7419 130.614 84.9987 131.255 84.0451C131.895 83.0915 132.237 81.9704 132.237 80.8236C132.236 79.2862 131.621 77.8123 130.528 76.7252C129.435 75.6382 127.952 75.0267 126.406 75.025V75.025Z" fill="#3F3D56"/>
<path d="M127.16 92.1292H116.348V92.6951H127.16V92.1292Z" fill="#F2F2F2"/>
<path d="M131.429 90.4312H116.348V90.9971H131.429V90.4312Z" fill="#F2F2F2"/>
<path d="M126.308 73.4532C126.937 73.4532 127.446 72.9464 127.446 72.3213C127.446 71.6962 126.937 71.1895 126.308 71.1895C125.68 71.1895 125.17 71.6962 125.17 72.3213C125.17 72.9464 125.68 73.4532 126.308 73.4532Z" fill="#3F3D56"/>
<path d="M110.895 42.978H85.1699V67.313H110.895V42.978Z" fill="#D0CDE1"/>
<path d="M107.973 45.885H88.0938V61.002H107.973V45.885Z" fill="#3D5AFF"/>
<path d="M100.171 57.7195H95.8945V58.9797H100.171V57.7195Z" fill="#3F3D56"/>
<path d="M105.341 47.9075H90.7246V48.4476H105.341V47.9075Z" fill="#3F3D56"/>
<path d="M105.341 49.6177H90.7246V50.1578H105.341V49.6177Z" fill="#3F3D56"/>
<path d="M105.341 51.3281H90.7246V51.8682H105.341V51.3281Z" fill="#3F3D56"/>
<path d="M105.341 53.0383H90.7246V53.5784H105.341V53.0383Z" fill="#3F3D56"/>
<path d="M105.341 54.7488H90.7246V55.2889H105.341V54.7488Z" fill="#3F3D56"/>
<path d="M98.8869 62.5024H88.0742V63.0684H98.8869V62.5024Z" fill="#F2F2F2"/>
<path d="M103.155 63.9172H88.0742V64.4832H103.155V63.9172Z" fill="#F2F2F2"/>
<path d="M98.0327 45.5245C98.6613 45.5245 99.1709 45.0177 99.1709 44.3926C99.1709 43.7675 98.6613 43.2607 98.0327 43.2607C97.4041 43.2607 96.8945 43.7675 96.8945 44.3926C96.8945 45.0177 97.4041 45.5245 98.0327 45.5245Z" fill="#3F3D56"/>
<path d="M189.72 58.8752L208.351 60.2365L213.619 60.6214L213.292 60.2961L214.282 74.5294L214.776 81.646C214.796 81.9336 214.817 82.2211 214.836 82.5086C214.853 82.7477 214.919 82.9781 214.634 83.0371C214.068 83.1544 213.478 83.2032 212.905 83.2752C211.738 83.4216 210.57 83.5447 209.398 83.6447C204.712 84.0447 200.001 84.0741 195.31 83.7325C194.138 83.6471 192.968 83.5385 191.8 83.4066C191.365 83.3576 190.826 83.3392 190.667 82.8548C190.504 82.3553 190.476 81.7875 190.402 81.2692C190.072 78.9603 189.848 76.6396 189.728 74.3071C189.485 69.6583 189.65 64.9972 190.223 60.3772C190.294 59.8114 190.37 59.2465 190.453 58.6824C190.513 58.2728 189.883 58.096 189.822 58.5094C189.119 63.2838 188.848 68.1114 189.014 72.9339C189.098 75.3466 189.293 77.7522 189.597 80.1506C189.674 80.7564 189.757 81.3613 189.847 81.9654C189.919 82.446 189.937 83.0128 190.224 83.4258C190.502 83.8243 190.968 83.9522 191.426 84.0129C192.009 84.0902 192.596 84.1455 193.181 84.2023C198.04 84.6735 202.93 84.7454 207.801 84.4174C209.026 84.3348 210.25 84.2269 211.472 84.0939C212.074 84.0283 212.675 83.9565 213.275 83.8786C213.569 83.8405 213.863 83.8011 214.157 83.7603C214.431 83.741 214.702 83.694 214.966 83.6201C215.518 83.4225 215.518 82.8936 215.483 82.4008L215.356 80.5677L215.101 76.9016L214.074 62.1291L213.947 60.2961C213.944 60.2105 213.909 60.1292 213.848 60.0687C213.787 60.0082 213.705 59.9731 213.619 59.9707L194.988 58.6094L189.72 58.2244C189.299 58.1937 189.301 58.8446 189.72 58.8752V58.8752Z" fill="#D0CDE1"/>
<path d="M197.704 66.5575C197.798 66.3091 197.562 66.8441 197.681 66.6074C197.712 66.5445 197.742 66.4809 197.775 66.4189C197.842 66.2956 197.916 66.1763 197.996 66.0616C198.077 65.9472 198.199 65.9031 197.961 66.102C198.01 66.0519 198.056 65.9989 198.099 65.9432C198.21 65.8224 198.328 65.7084 198.453 65.602C198.543 65.5254 198.712 65.4603 198.409 65.6298C198.469 65.5963 198.524 65.5461 198.582 65.5077C198.699 65.429 198.821 65.3562 198.946 65.2893C199.008 65.2558 199.072 65.2238 199.136 65.1933C199.245 65.1416 199.426 65.1239 199.083 65.211C199.23 65.1736 199.373 65.1044 199.52 65.0629C199.645 65.0276 199.771 64.9979 199.899 64.9738C200.013 64.9524 200.22 64.9686 199.83 64.9775C199.9 64.9759 199.971 64.9625 200.041 64.9578C200.182 64.9483 200.323 64.9462 200.463 64.9516C200.534 64.9543 200.603 64.9612 200.674 64.9654C200.907 64.9792 200.321 64.9009 200.674 64.9678C200.812 64.994 200.949 65.0283 201.083 65.0706C201.148 65.0984 201.215 65.1217 201.284 65.1405L201.103 65.0629C201.147 65.0821 201.191 65.1022 201.235 65.1232C201.364 65.1856 201.49 65.2556 201.612 65.3329C201.672 65.3714 201.73 65.4132 201.789 65.4533C201.976 65.5793 201.54 65.2413 201.804 65.4715C201.894 65.5497 201.98 65.6317 202.062 65.7177C202.111 65.7692 202.159 65.822 202.206 65.8761C202.285 65.9671 202.345 66.1332 202.181 65.8354C202.331 66.108 202.518 66.3552 202.659 66.6361C202.78 66.8758 202.55 66.3385 202.641 66.5907C202.666 66.6588 202.692 66.7259 202.715 66.7945C202.762 66.9316 202.802 67.0707 202.836 67.2116C202.87 67.3528 202.886 67.497 202.918 67.6383C202.832 67.2494 202.894 67.4743 202.903 67.58C202.911 67.6761 202.915 67.7724 202.917 67.8689C202.919 67.9893 202.916 68.1096 202.908 68.2299C202.903 68.3003 202.888 68.3752 202.888 68.4456C202.884 68.0804 202.915 68.2623 202.892 68.3849C202.866 68.5269 202.832 68.6674 202.791 68.8058C202.77 68.8752 202.747 68.9439 202.723 69.012C202.701 69.0724 202.678 69.1324 202.654 69.1919C202.724 69.029 202.73 69.0135 202.671 69.1454C202.309 69.8642 201.859 70.5344 201.504 71.2557C200.622 73.0541 200.325 75.081 200.655 77.0547C200.746 77.382 200.962 77.6611 201.257 77.8324C201.562 78.0066 201.925 78.0538 202.265 77.9636C203.003 77.7262 203.293 77.0858 203.179 76.3627C203.139 76.108 203.2 76.5898 203.174 76.3333C203.163 76.2233 203.151 76.1135 203.144 76.0032C203.128 75.7828 203.122 75.5619 203.125 75.3407C203.127 75.1513 203.136 74.9621 203.152 74.7732C203.153 74.6624 203.164 74.552 203.186 74.4434C203.186 74.4441 203.144 74.7051 203.173 74.5549C203.185 74.4929 203.193 74.4301 203.204 74.368C203.279 73.9481 203.388 73.5349 203.529 73.1322C203.56 73.0427 203.595 72.9544 203.628 72.8656C203.715 72.6311 203.537 73.0538 203.643 72.8269C203.737 72.6244 203.834 72.4246 203.942 72.2287C204.392 71.4056 204.902 70.6344 205.23 69.7491C205.48 69.0547 205.579 68.3153 205.52 67.58C205.399 66.0621 204.752 64.522 203.546 63.5392C202.922 63.0232 202.185 62.6609 201.395 62.4818C200.604 62.3026 199.782 62.3116 198.995 62.5082C198.132 62.7157 197.333 63.1301 196.668 63.7154C196.003 64.3006 195.492 65.0388 195.18 65.8655C194.939 66.5039 195.449 67.3202 196.094 67.4665C196.839 67.6351 197.445 67.241 197.704 66.5575V66.5575Z" fill="#D0CDE1"/>
<path d="M202.277 82.0635C202.492 82.0635 202.703 82.0001 202.882 81.8812C203.061 81.7623 203.2 81.5934 203.282 81.3957C203.365 81.198 203.386 80.9805 203.344 80.7707C203.302 80.5608 203.199 80.3681 203.047 80.2168C202.894 80.0655 202.701 79.9624 202.49 79.9207C202.279 79.8789 202.06 79.9004 201.861 79.9823C201.662 80.0641 201.492 80.2028 201.373 80.3807C201.253 80.5586 201.189 80.7678 201.189 80.9817C201.193 81.2676 201.308 81.541 201.512 81.7432C201.715 81.9454 201.99 82.0604 202.277 82.0635V82.0635Z" fill="#D0CDE1"/>
<path d="M84.3222 119.904H78.2148V125.978H84.3222V119.904Z" fill="#3D5AFF"/>
<path d="M88.0294 122.507H80.6133V115.132H88.0294V122.507ZM80.9357 122.187H87.707V115.453H80.9357V122.187Z" fill="#3F3D56"/>
<path d="M220.305 87.1191L219.433 89.7221C219.433 89.7221 213.98 96.0125 217.906 96.8801C221.832 97.7477 222.268 90.1559 222.268 90.1559L223.359 87.9868L220.305 87.1191Z" fill="#FFB8B8"/>
<path d="M226.412 55.6671C226.412 55.6671 225.103 55.4502 224.667 60.656C224.231 65.8618 224.013 74.9721 224.013 74.9721L218.996 87.7698L225.322 89.722L228.375 75.189L226.412 55.6671Z" fill="#575A89"/>
<path d="M223.576 133.104L222.922 137.225H228.811L228.593 133.104H223.576Z" fill="#FFB8B8"/>
<path d="M242.554 137.659L242.117 143.299L246.043 143.733V137.225L242.554 137.659Z" fill="#FFB8B8"/>
<path d="M225.976 79.3105L220.959 107.943L222.268 133.972H229.029V110.329L235.573 98.1817L240.808 113.365L242.117 138.744L249.533 137.442L247.788 112.715C247.788 112.715 246.479 79.7443 245.17 79.3105C243.862 78.8767 225.976 79.3105 225.976 79.3105Z" fill="#2F2E41"/>
<path d="M224.231 135.924C224.231 135.924 224.231 133.755 222.486 135.056C220.741 136.358 218.56 138.744 218.56 138.744C218.56 138.744 210.271 143.299 216.16 143.95C222.05 144.6 225.758 140.913 225.758 140.913L226.412 141.564C226.412 141.564 229.902 140.913 229.902 140.045C229.877 139.318 229.804 138.594 229.684 137.876C229.684 137.876 229.225 134.197 228.691 134.952C228.157 135.707 225.103 137.225 224.231 135.924Z" fill="#2F2E41"/>
<path d="M246.261 141.997C246.261 141.997 242.334 140.045 241.462 141.781C240.589 143.516 239.935 146.986 239.935 146.986C239.935 146.986 237.099 152.409 242.116 151.975C247.133 151.542 246.915 148.722 246.915 148.071C246.915 147.42 246.697 145.902 246.915 145.251C247.133 144.6 246.261 141.997 246.261 141.997Z" fill="#2F2E41"/>
<path d="M237.645 47.0991C241.018 47.0991 243.752 44.3799 243.752 41.0256C243.752 37.6713 241.018 34.9521 237.645 34.9521C234.271 34.9521 231.537 37.6713 231.537 41.0256C231.537 44.3799 234.271 47.0991 237.645 47.0991Z" fill="#FFB8B8"/>
<path d="M233.611 43.9541L233.393 51.7628L241.245 51.1121V43.9541H233.611Z" fill="#FFB8B8"/>
<path d="M241.681 47.2078C241.681 47.2078 237.972 49.5938 236.882 50.0276C235.791 50.4614 233.392 48.2923 233.392 48.2923C233.392 48.2923 232.738 48.7261 232.738 49.16C232.738 49.5938 232.301 51.3291 232.301 51.3291L227.066 68.465L227.503 80.6119C227.503 80.6119 243.426 82.1303 245.17 80.1781C246.915 78.2259 244.298 50.2445 244.298 50.2445L241.681 47.2078Z" fill="#D0CDE1"/>
<path opacity="0.1" d="M240.589 51.7627C240.589 51.7627 234.699 53.9318 232.736 51.9796C232.736 51.9796 235.572 52.6303 240.589 51.7627Z" fill="black"/>
<path d="M256.076 98.8323C253.677 100.351 245.825 102.303 245.825 102.303C245.825 102.303 244.967 83.9414 241.898 81.0457C238.847 78.1629 233.865 57.3807 238.345 53.767C238.365 53.7484 238.386 53.731 238.409 53.715L241.244 47.2077C241.244 47.2077 241.68 46.5569 242.553 47.4246C243.259 48.1767 243.914 48.9737 244.516 49.8106L244.64 49.8605L250.623 52.1966L248.224 62.8252C248.224 62.8252 258.476 97.3139 256.076 98.8323Z" fill="#575A89"/>
<path opacity="0.1" d="M244.639 49.8605L242.988 55.8841L238.344 53.767C238.364 53.7484 238.385 53.731 238.407 53.715L241.243 47.2077C241.243 47.2077 241.679 46.5569 242.551 47.4246C243.257 48.1767 243.913 48.9737 244.514 49.8106L244.639 49.8605Z" fill="black"/>
<path d="M233.283 48.1838L232.629 55.5588L232.594 55.895L227.612 103.062C227.612 103.062 223.25 101.544 221.723 99.8085C220.196 98.0732 225.213 78.7682 225.213 78.7682L225.649 54.4742C225.649 54.4742 229.518 51.765 231.1 50.277C231.471 49.93 231.715 49.6502 231.756 49.4853C231.974 48.6177 233.283 48.1838 233.283 48.1838Z" fill="#575A89"/>
<path opacity="0.1" d="M233.282 48.1838L232.628 55.5588L232.593 55.895L229.465 55.4503L231.099 50.277C231.469 49.93 231.714 49.6502 231.755 49.4853C231.973 48.6177 233.282 48.1838 233.282 48.1838Z" fill="black"/>
<path d="M244.952 84.7332L242.553 86.9023C242.553 86.9023 243.643 91.4574 244.952 91.6743C244.952 91.6743 245.825 90.3728 246.043 89.2883C246.261 88.2037 248.224 87.1192 248.224 87.1192L244.952 84.7332Z" fill="#FFB8B8"/>
<path d="M247.789 51.7627L250.624 52.1965C250.624 52.1965 260.004 68.031 258.913 73.6706C257.822 79.3103 249.098 89.0713 249.098 89.0713L243.645 84.7331L251.715 73.8875L247.571 60.8729L247.789 51.7627Z" fill="#575A89"/>
<path d="M231.523 41.708C231.523 41.708 231.523 36.3518 232.832 35.1345H234.403C234.403 35.1345 236.235 32.4564 238.591 33.4303C240.947 34.4041 244.874 36.1083 244.612 38.7864C244.35 41.4645 243.534 43.1949 243.534 43.1949C243.534 43.1949 243.098 43.1949 242.125 41.739C240.826 39.7936 243.827 40.4 239.9 39.6696C235.974 38.9392 233.618 37.9654 233.094 38.9392C232.571 39.9131 231.523 41.708 231.523 41.708Z" fill="#2F2E41"/>
<path d="M234.377 35.4979C234.377 35.4979 234.586 33.9325 235.447 33.5955L234.377 35.4979Z" fill="#2F2E41"/>
<path d="M234.373 35.8198C234.373 35.8198 233.936 34.3017 234.59 33.6506L234.373 35.8198Z" fill="#2F2E41"/>
</g>
<defs>
<clipPath id="clip0">
<rect width="188" height="119" fill="white" transform="translate(71 33)"/>
</clipPath>
</defs>
</svg>
